# xmcd CD database file
#
# Track frame offsets:
#	183
#	19110
#	37338
#	53013
#	73640
#	95163
#	113000
#	129853
#	147055
#	164963
#	181340
#	198953
#	213950
#	238455
#	260458
#	277923
#	293613
#	310388
#
# Disc length: 4346 seconds
#
# Revision: 1
# Processed by: cddbd v1.5.1PL0 Copyright (c) Steve Scherf et al.
# Submitted via: CDex 1.51
#
DISCID=1110f812
DTITLE=Various Artist - Gefühle - Vol.17 - Die schönsten romantischen Schlager
DYEAR=1900
DGENRE=Oldies
TTITLE0=Mareille Mathieu - Du weißt doch ich lieb' dich
TTITLE1=Udo Lindenberg - Horizont
TTITLE2=Juliane Werding - Stimmen im Wind
TTITLE3=Drafi Deutscher - Unsere Herzen frieren
TTITLE4=Heike Schäfer - Nur weil ich dich wirklich liebe
TTITLE5=Michael Stein - Du von nebenan
TTITLE6=Nicki - Wenn d' Sehnsucht brennt
TTITLE7=Peter Alexander - Zeit der Rosen
TTITLE8=Catarina Valente - Chucao
TTITLE9=Roy Black - Adieu cherie
TTITLE10=Paola - Wahrheit und Liebe
TTITLE11=Andy Borg - Angelo mio
TTITLE12=Milva - Du gibst mir mehr
TTITLE13=Relax - I schenk' dir mei' Herz
TTITLE14=Darinka - Der Himmel gehört den Tauben
TTITLE15=Benny Neymann - Im Himmel darf man sich nicht küssen
TTITLE16=Ute Berling - Alles was ich will bist du
TTITLE17=Fred Bertelmann - Nimm deine Frau einmal wieder in die Arme
EXTD=
EXTT0=
EXTT1=
EXTT2=
EXTT3=
EXTT4=
EXTT5=
EXTT6=
EXTT7=
EXTT8=
EXTT9=
EXTT10=
EXTT11=
EXTT12=
EXTT13=
EXTT14=
EXTT15=
EXTT16=
EXTT17=
PLAYORDER=
